<?xml version="1.0" encoding="UTF-8" standalone="no"?><!DOCTYPE svg PUBLIC "-//W3C//DTD SVG 1.1//EN" "http://www.w3.org/Graphics/SVG/1.1/DTD/svg11.dtd"><svg width="26px" height="800px" version="1.1" xmlns="http://www.w3.org/2000/svg" xmlns:xlink="http://www.w3.org/1999/xlink" xml:space="preserve" xmlns:serif="http://www.serif.com/" style="fill-rule:evenodd;clip-rule:evenodd;stroke-linecap:round;stroke-linejoin:round;stroke-miterlimit:1.5;"><g><path d="M1,799l24.158,0" style="fill:none;stroke:#fff;stroke-width:1px;"/><path d="M1,799l24.158,0" style="fill:none;stroke:#fff;stroke-width:1px;"/><path d="M1,799l20.748,0" style="fill:none;stroke:#fff;stroke-width:1px;"/><path d="M1,793.71l12.158,0" style="fill:none;stroke:#fff;stroke-width:1px;"/><path d="M1,788.42l12.158,0" style="fill:none;stroke:#fff;stroke-width:1px;"/><path d="M1,783.131l12.158,0" style="fill:none;stroke:#fff;stroke-width:1px;"/><path d="M1,777.841l12.158,0" style="fill:none;stroke:#fff;stroke-width:1px;"/><path d="M1,772.551l12.158,0" style="fill:none;stroke:#fff;stroke-width:1px;"/><path d="M1,767.261l12.158,0" style="fill:none;stroke:#fff;stroke-width:1px;"/><path d="M1,761.971l12.158,0" style="fill:none;stroke:#fff;stroke-width:1px;"/><path d="M1,756.682l12.158,0" style="fill:none;stroke:#fff;stroke-width:1px;"/><path d="M1,751.392l12.158,0" style="fill:none;stroke:#fff;stroke-width:1px;"/><path d="M1,746.102l20.748,0" style="fill:none;stroke:#fff;stroke-width:1px;"/><path d="M1,740.812l12.158,0" style="fill:none;stroke:#fff;stroke-width:1px;"/><path d="M1,735.522l12.158,0" style="fill:none;stroke:#fff;stroke-width:1px;"/><path d="M1,730.232l12.158,0" style="fill:none;stroke:#fff;stroke-width:1px;"/><path d="M1,724.943l12.158,0" style="fill:none;stroke:#fff;stroke-width:1px;"/><path d="M1,719.653l12.158,0" style="fill:none;stroke:#fff;stroke-width:1px;"/><path d="M1,714.363l12.158,0" style="fill:none;stroke:#fff;stroke-width:1px;"/><path d="M1,709.073l12.158,0" style="fill:none;stroke:#fff;stroke-width:1px;"/><path d="M1,703.783l12.158,0" style="fill:none;stroke:#fff;stroke-width:1px;"/><path d="M1,698.494l12.158,0" style="fill:none;stroke:#fff;stroke-width:1px;"/><path d="M1,693.204l20.748,0" style="fill:none;stroke:#fff;stroke-width:1px;"/><path d="M1,687.914l12.158,0" style="fill:none;stroke:#fff;stroke-width:1px;"/><path d="M1,682.624l12.158,0" style="fill:none;stroke:#fff;stroke-width:1px;"/><path d="M1,677.334l12.158,0" style="fill:none;stroke:#fff;stroke-width:1px;"/><path d="M1,672.045l12.158,0" style="fill:none;stroke:#fff;stroke-width:1px;"/><path d="M1,666.755l12.158,0" style="fill:none;stroke:#fff;stroke-width:1px;"/><path d="M1,661.465l12.158,0" style="fill:none;stroke:#fff;stroke-width:1px;"/><path d="M1,656.175l12.158,0" style="fill:none;stroke:#fff;stroke-width:1px;"/><path d="M1,650.885l12.158,0" style="fill:none;stroke:#fff;stroke-width:1px;"/><path d="M1,645.595l12.158,0" style="fill:none;stroke:#fff;stroke-width:1px;"/><path d="M1,640.306l24.183,0" style="fill:none;stroke:#fff;stroke-width:1px;"/><path d="M1.154,636.462l24.183,0" style="fill:none;stroke:#fff;stroke-width:1px;"/><path d="M1.179,622.95l12.158,0" style="fill:none;stroke:#fff;stroke-width:1px;"/><path d="M1.179,609.438l12.158,0" style="fill:none;stroke:#fff;stroke-width:1px;"/><path d="M1.179,595.925l12.158,0" style="fill:none;stroke:#fff;stroke-width:1px;"/><path d="M1.179,582.413l12.158,0" style="fill:none;stroke:#fff;stroke-width:1px;"/><path d="M1.179,568.901l12.158,0" style="fill:none;stroke:#fff;stroke-width:1px;"/><path d="M1.179,555.389l12.158,0" style="fill:none;stroke:#fff;stroke-width:1px;"/><path d="M1.154,541.876l24.183,0" style="fill:none;stroke:#fff;stroke-width:1px;"/><path d="M1.179,528.364l12.158,0" style="fill:none;stroke:#fff;stroke-width:1px;"/><path d="M1.179,514.852l12.158,0" style="fill:none;stroke:#fff;stroke-width:1px;"/><path d="M1.179,501.339l12.158,0" style="fill:none;stroke:#fff;stroke-width:1px;"/><path d="M1.179,487.827l12.158,0" style="fill:none;stroke:#fff;stroke-width:1px;"/><path d="M1.179,474.315l12.158,0" style="fill:none;stroke:#fff;stroke-width:1px;"/><path d="M1.179,460.802l12.158,0" style="fill:none;stroke:#fff;stroke-width:1px;"/><path d="M1.179,447.29l12.158,0" style="fill:none;stroke:#fff;stroke-width:1px;"/><path d="M1.179,433.778l12.158,0" style="fill:none;stroke:#fff;stroke-width:1px;"/><path d="M1.179,420.266l12.158,0" style="fill:none;stroke:#fff;stroke-width:1px;"/><path d="M1.154,406.753l24.183,0" style="fill:none;stroke:#fff;stroke-width:1px;"/><path d="M1.179,393.241l12.158,0" style="fill:none;stroke:#fff;stroke-width:1px;"/><path d="M1.179,379.729l12.158,0" style="fill:none;stroke:#fff;stroke-width:1px;"/><path d="M1.179,366.216l12.158,0" style="fill:none;stroke:#fff;stroke-width:1px;"/><path d="M1.179,352.704l12.158,0" style="fill:none;stroke:#fff;stroke-width:1px;"/><path d="M1.179,339.192l12.158,0" style="fill:none;stroke:#fff;stroke-width:1px;"/><path d="M1.179,325.679l12.158,0" style="fill:none;stroke:#fff;stroke-width:1px;"/><path d="M1.179,312.167l12.158,0" style="fill:none;stroke:#fff;stroke-width:1px;"/><path d="M1.179,298.655l12.158,0" style="fill:none;stroke:#fff;stroke-width:1px;"/><path d="M1.179,285.143l12.158,0" style="fill:none;stroke:#fff;stroke-width:1px;"/><path d="M1.154,271.63l24.183,0" style="fill:none;stroke:#fff;stroke-width:1px;"/><path d="M1.179,258.118l12.158,0" style="fill:none;stroke:#fff;stroke-width:1px;"/><path d="M1.179,244.606l12.158,0" style="fill:none;stroke:#fff;stroke-width:1px;"/><path d="M1.179,231.093l12.158,0" style="fill:none;stroke:#fff;stroke-width:1px;"/><path d="M1.179,217.581l12.158,0" style="fill:none;stroke:#fff;stroke-width:1px;"/><path d="M1.179,204.069l12.158,0" style="fill:none;stroke:#fff;stroke-width:1px;"/><path d="M1.179,190.556l12.158,0" style="fill:none;stroke:#fff;stroke-width:1px;"/><path d="M1.179,177.044l12.158,0" style="fill:none;stroke:#fff;stroke-width:1px;"/><path d="M1.179,163.532l12.158,0" style="fill:none;stroke:#fff;stroke-width:1px;"/><path d="M1.179,150.02l12.158,0" style="fill:none;stroke:#fff;stroke-width:1px;"/><path d="M1.154,136.507l24.183,0" style="fill:none;stroke:#fff;stroke-width:1px;"/><path d="M1.179,122.995l12.158,0" style="fill:none;stroke:#fff;stroke-width:1px;"/><path d="M1.179,109.483l12.158,0" style="fill:none;stroke:#fff;stroke-width:1px;"/><path d="M1.179,95.97l12.158,0" style="fill:none;stroke:#fff;stroke-width:1px;"/><path d="M1.179,82.458l12.158,0" style="fill:none;stroke:#fff;stroke-width:1px;"/><path d="M1.179,68.946l12.158,0" style="fill:none;stroke:#fff;stroke-width:1px;"/><path d="M1.179,55.433l12.158,0" style="fill:none;stroke:#fff;stroke-width:1px;"/><path d="M1.179,41.921l12.158,0" style="fill:none;stroke:#fff;stroke-width:1px;"/><path d="M1.179,28.409l12.158,0" style="fill:none;stroke:#fff;stroke-width:1px;"/><path d="M1.179,14.897l12.158,0" style="fill:none;stroke:#fff;stroke-width:1px;"/><path d="M1.154,1.384l24.183,0" style="fill:none;stroke:#fff;stroke-width:1px;"/></g></svg>