<?xml version="1.0" encoding="UTF-8" standalone="no"?><!DOCTYPE svg PUBLIC "-//W3C//DTD SVG 1.1//EN" "http://www.w3.org/Graphics/SVG/1.1/DTD/svg11.dtd"><svg width="100%" height="100%" viewBox="0 0 496 72" version="1.1" xmlns="http://www.w3.org/2000/svg" xmlns:xlink="http://www.w3.org/1999/xlink" xml:space="preserve" xmlns:serif="http://www.serif.com/" style="fill-rule:evenodd;clip-rule:evenodd;stroke-linejoin:round;stroke-miterlimit:1.41421;"><g><path d="M324.633,36c0,20.708 -13.671,35.586 -34.179,35.586c-22.115,0 -34.178,-16.687 -34.178,-35.184c0,-24.729 17.692,-35.988 33.776,-35.988c22.518,0 34.581,17.089 34.581,35.586Zm-220.754,-28.951c0,-4.826 -2.413,-6.434 -7.64,-6.434c-5.227,0 -7.037,2.212 -7.037,6.434l-0.201,37.194c0,15.682 10.053,26.539 29.756,26.539c16.486,0 27.946,-10.455 27.946,-26.137l0,-35.988c0,-6.031 -1.81,-8.042 -7.238,-8.042c-5.83,0 -7.439,2.212 -7.439,6.434l0,35.988c0,10.454 -6.031,16.084 -14.274,16.084c-9.249,0 -13.873,-7.238 -13.873,-16.084l0,-35.988Zm-68.759,-5.73c2.814,0 5.428,1.005 7.036,5.428l21.714,57.501c1.407,3.619 -1.408,5.227 -4.624,5.227l-4.826,0c-2.412,0 -4.222,-1.407 -6.433,-5.227c-1.609,-3.016 -2.614,-4.222 -4.624,-5.027c-1.207,-0.603 -4.424,-0.804 -9.249,-0.804l-7.64,0c-5.629,0 -7.238,0.402 -10.856,6.434c-2.011,3.016 -3.016,4.624 -7.439,4.624l-4.021,0c-4.625,0 -4.625,-3.418 -3.619,-6.434l20.708,-55.892c1.407,-3.82 3.82,-5.83 6.836,-5.83l7.037,0Zm144.354,0.804l28.348,0c14.878,0 23.523,7.439 23.523,20.708c0,3.418 -0.804,6.434 -2.412,9.45c-1.408,2.211 -2.011,2.814 -3.016,3.82c-1.206,1.206 0,0.201 -3.619,3.015c-2.211,2.212 -3.217,4.021 -3.217,5.63c0,1.407 0.201,2.613 0.804,3.619l7.64,13.671c1.207,2.212 1.81,3.619 1.81,4.222c0,2.212 -1.81,3.217 -5.429,3.217l-2.211,0c-3.418,0 -6.032,-1.407 -7.439,-4.021l-5.428,-9.65c-5.63,-10.053 -7.64,-11.862 -12.868,-11.862c-5.428,0 -8.243,2.814 -8.243,8.243l0,11.258c0,4.021 -2.412,6.032 -7.036,6.032c-5.228,0 -6.836,-1.608 -6.836,-7.64l0,-53.681c0,-4.021 1.809,-6.031 5.629,-6.031Zm177.126,0l28.348,0c14.878,0 23.523,7.439 23.523,20.708c0,3.418 -0.804,6.434 -2.412,9.45c-1.408,2.211 -2.011,2.814 -3.016,3.82c-1.206,1.206 0,0.201 -3.619,3.015c-2.211,2.212 -3.217,4.021 -3.217,5.63c0,1.407 0.201,2.613 0.804,3.619l7.64,13.671c1.207,2.212 1.81,3.619 1.81,4.222c0,2.212 -1.81,3.217 -5.428,3.217l-2.212,0c-3.418,0 -6.032,-1.407 -7.439,-4.021l-5.428,-9.65c-5.63,-10.053 -7.64,-11.862 -12.868,-11.862c-5.428,0 -8.243,2.814 -8.243,8.243l0,11.258c0,4.021 -2.412,6.032 -7.036,6.032c-5.228,0 -6.836,-1.608 -6.836,-7.64l0,-53.681c0,-4.021 1.809,-6.031 5.629,-6.031Zm110.277,-0.804c2.814,0 5.428,1.005 7.037,5.428l21.713,57.501c1.407,3.619 -1.407,5.227 -4.624,5.227l-4.825,0c-2.413,0 -4.222,-1.407 -6.434,-5.227c-1.608,-3.016 -2.614,-4.222 -4.624,-5.027c-1.206,-0.603 -4.423,-0.804 -9.249,-0.804l-7.639,0c-5.63,0 -7.238,0.402 -10.857,6.434c-2.011,3.016 -3.016,4.624 -7.439,4.624l-4.021,0c-4.624,0 -4.624,-3.418 -3.619,-6.434l20.708,-55.892c1.408,-3.82 3.82,-5.83 6.836,-5.83l7.037,0Zm-196.528,34.48c0,-15.682 8.645,-23.925 20.105,-23.925c12.265,0 20.106,10.455 20.106,24.126c0,14.878 -8.043,24.327 -20.91,24.327c-11.259,0 -19.301,-10.052 -19.301,-24.528Zm-230.002,4.323l-3.619,-12.265c-1.206,-4.423 -2.815,-5.83 -4.825,-5.83c-2.011,0 -3.619,1.809 -4.624,5.428l-3.82,13.069c-1.006,3.619 2.01,7.439 5.629,7.439l5.227,0c4.423,0 7.238,-3.82 6.032,-7.841Zm425.726,7.841c4.423,0 7.237,-3.82 6.031,-7.841l-3.619,-12.265c-1.206,-4.423 -2.815,-5.83 -4.825,-5.83c-2.011,0 -3.619,1.809 -4.624,5.428l-3.82,13.069c-1.005,3.619 2.01,7.439 5.629,7.439l5.228,0Zm-269.912,-36.592c-5.629,0 -8.444,3.418 -8.444,10.053l0,4.624c0,5.629 3.418,8.444 10.053,8.444l6.232,0c7.64,0 13.27,-4.825 13.27,-11.661c0,-6.232 -4.825,-11.46 -13.672,-11.46l-7.439,0Zm177.126,0c-5.629,0 -8.444,3.418 -8.444,10.053l0,4.624c0,5.629 3.418,8.444 10.053,8.444l6.232,0c7.64,0 13.27,-4.825 13.27,-11.661c0,-6.232 -4.825,-11.46 -13.672,-11.46l-7.439,0Z" style="fill:url(#_Linear1);"/></g><defs><linearGradient id="_Linear1" x1="0" y1="0" x2="1" y2="0" gradientUnits="userSpaceOnUse" gradientTransform="matrix(495.998,0,0,495.998,0.000845962,30)"><stop offset="0" style="stop-color:#00fb5e;stop-opacity:1"/><stop offset="0.49" style="stop-color:#00c5ff;stop-opacity:1"/><stop offset="0.77" style="stop-color:#b653cc;stop-opacity:1"/><stop offset="1" style="stop-color:#ff25b8;stop-opacity:1"/></linearGradient></defs></svg>