<?xml version="1.0" encoding="UTF-8" standalone="no"?><!DOCTYPE svg PUBLIC "-//W3C//DTD SVG 1.1//EN" "http://www.w3.org/Graphics/SVG/1.1/DTD/svg11.dtd"><svg width="100%" height="100%" viewBox="0 0 496 72" version="1.1" xmlns="http://www.w3.org/2000/svg" xmlns:xlink="http://www.w3.org/1999/xlink" xml:space="preserve" xmlns:serif="http://www.serif.com/" style="fill-rule:evenodd;clip-rule:evenodd;stroke-linejoin:round;stroke-miterlimit:1.41421;"><g><path d="M54.42,69.475l4.826,0c3.216,0 6.031,-1.608 4.624,-5.227l-21.714,-57.501c-1.608,-4.423 -4.222,-5.428 -7.036,-5.428l-7.037,0c-3.016,0 -5.429,2.01 -6.836,5.83l-20.708,55.892c-1.006,3.016 -1.006,6.434 3.619,6.434l4.021,0c4.423,0 5.428,-1.608 7.439,-4.624c3.618,-6.032 5.227,-6.434 10.856,-6.434l7.64,0c4.825,0 8.042,0.201 9.249,0.804c2.01,0.805 3.015,2.011 4.624,5.027c2.211,3.82 4.021,5.227 6.433,5.227Zm-14.073,-29.353c1.206,4.021 -1.609,7.841 -6.032,7.841l-5.227,0c-3.619,0 -6.635,-3.82 -5.629,-7.439l3.82,-13.069c1.005,-3.619 2.613,-5.428 4.624,-5.428c2.01,0 3.619,1.407 4.825,5.83l3.619,12.265Z" style="fill:#fff;fill-rule:nonzero;"/><path d="M103.879,7.049c0,-4.826 -2.413,-6.434 -7.64,-6.434c-5.227,0 -7.037,2.212 -7.037,6.434l-0.201,37.194c0,15.682 10.053,26.539 29.756,26.539c16.486,0 27.946,-10.455 27.946,-26.137l0,-35.988c0,-6.031 -1.81,-8.042 -7.238,-8.042c-5.83,0 -7.439,2.212 -7.439,6.434l0,35.988c0,10.454 -6.031,16.084 -14.274,16.084c-9.249,0 -13.873,-7.238 -13.873,-16.084l0,-35.988Z" style="fill:#fff;fill-rule:nonzero;"/><path d="M207.822,2.123l-28.348,0c-3.82,0 -5.629,2.01 -5.629,6.031l0,53.681c0,6.032 1.608,7.64 6.836,7.64c4.624,0 7.036,-2.011 7.036,-6.032l0,-11.258c0,-5.429 2.815,-8.243 8.243,-8.243c5.228,0 7.238,1.809 12.868,11.862l5.428,9.65c1.407,2.614 4.021,4.021 7.439,4.021l2.211,0c3.619,0 5.429,-1.005 5.429,-3.217c0,-0.603 -0.603,-2.01 -1.81,-4.222l-7.64,-13.671c-0.603,-1.006 -0.804,-2.212 -0.804,-3.619c0,-1.609 1.006,-3.418 3.217,-5.63c3.619,-2.814 2.413,-1.809 3.619,-3.015c1.005,-1.006 1.608,-1.609 3.016,-3.82c1.608,-3.016 2.412,-6.032 2.412,-9.45c0,-13.269 -8.645,-20.708 -23.523,-20.708Zm-11.661,9.248l7.439,0c8.847,0 13.672,5.228 13.672,11.46c0,6.836 -5.63,11.661 -13.27,11.661l-6.232,0c-6.635,0 -10.053,-2.815 -10.053,-8.444l0,-4.624c0,-6.635 2.815,-10.053 8.444,-10.053Z" style="fill:#fff;fill-rule:nonzero;"/><path d="M324.633,36c0,-18.497 -12.063,-35.586 -34.581,-35.586c-16.084,0 -33.776,11.259 -33.776,35.988c0,18.497 12.063,35.184 34.178,35.184c20.508,0 34.179,-14.878 34.179,-35.586Zm-54.284,-0.201c0,-15.682 8.645,-23.925 20.105,-23.925c12.265,0 20.106,10.455 20.106,24.126c0,14.878 -8.043,24.327 -20.91,24.327c-11.259,0 -19.301,-10.052 -19.301,-24.528Z" style="fill:#fff;fill-rule:nonzero;"/><path d="M384.948,2.123l-28.348,0c-3.82,0 -5.629,2.01 -5.629,6.031l0,53.681c0,6.032 1.608,7.64 6.836,7.64c4.624,0 7.036,-2.011 7.036,-6.032l0,-11.258c0,-5.429 2.815,-8.243 8.243,-8.243c5.228,0 7.238,1.809 12.868,11.862l5.428,9.65c1.407,2.614 4.021,4.021 7.439,4.021l2.212,0c3.618,0 5.428,-1.005 5.428,-3.217c0,-0.603 -0.603,-2.01 -1.81,-4.222l-7.64,-13.671c-0.603,-1.006 -0.804,-2.212 -0.804,-3.619c0,-1.609 1.006,-3.418 3.217,-5.63c3.619,-2.814 2.413,-1.809 3.619,-3.015c1.005,-1.006 1.608,-1.609 3.016,-3.82c1.608,-3.016 2.412,-6.032 2.412,-9.45c0,-13.269 -8.645,-20.708 -23.523,-20.708Zm-11.661,9.248l7.439,0c8.847,0 13.672,5.228 13.672,11.46c0,6.836 -5.63,11.661 -13.27,11.661l-6.232,0c-6.635,0 -10.053,-2.815 -10.053,-8.444l0,-4.624c0,-6.635 2.815,-10.053 8.444,-10.053Z" style="fill:#fff;fill-rule:nonzero;"/><path d="M486.178,69.475l4.825,0c3.217,0 6.031,-1.608 4.624,-5.227l-21.713,-57.501c-1.609,-4.423 -4.223,-5.428 -7.037,-5.428l-7.037,0c-3.016,0 -5.428,2.01 -6.836,5.83l-20.708,55.892c-1.005,3.016 -1.005,6.434 3.619,6.434l4.021,0c4.423,0 5.428,-1.608 7.439,-4.624c3.619,-6.032 5.227,-6.434 10.857,-6.434l7.639,0c4.826,0 8.043,0.201 9.249,0.804c2.01,0.805 3.016,2.011 4.624,5.027c2.212,3.82 4.021,5.227 6.434,5.227Zm-14.074,-29.353c1.206,4.021 -1.608,7.841 -6.031,7.841l-5.228,0c-3.619,0 -6.634,-3.82 -5.629,-7.439l3.82,-13.069c1.005,-3.619 2.613,-5.428 4.624,-5.428c2.01,0 3.619,1.407 4.825,5.83l3.619,12.265Z" style="fill:#fff;fill-rule:nonzero;"/></g></svg>