<?xml version="1.0" encoding="UTF-8" standalone="no"?><!DOCTYPE svg PUBLIC "-//W3C//DTD SVG 1.1//EN" "http://www.w3.org/Graphics/SVG/1.1/DTD/svg11.dtd"><svg width="336px" height="75px" version="1.1" xmlns="http://www.w3.org/2000/svg" xmlns:xlink="http://www.w3.org/1999/xlink" xml:space="preserve" xmlns:serif="http://www.serif.com/" style="fill-rule:evenodd;clip-rule:evenodd;stroke-linejoin:round;stroke-miterlimit:1.41421;"><g><path d="M188.564,53.883c0,11.628 -9.41,21.058 -21.017,21.058c-11.607,0 -21.018,-9.43 -21.018,-21.058c0,-11.627 9.411,-21.053 21.018,-21.053c11.607,0 21.017,9.426 21.017,21.053Z" style="fill:#edebdc;"/><path d="M231.935,43l-23.515,-23.809l-21.295,19.98l-15.136,-14.012l-17.986,7.38l-31.007,-28.4l-32.331,33.942l7.453,36.396l131.605,1.398l2.756,-33.295l-0.544,0.42Z" style="fill:#172237;fill-rule:nonzero;"/><path d="M127.172,35.911l-31.172,-11.721l-11.448,4.64l-14.565,-7.639l-48.987,25.473l106.172,-10.753Z" style="fill:#172237;"/><path d="M167.742,44.241l-43.716,-15.718l3.648,-7.034l4.679,-3.447l-9.357,-2.393l0,-11.51l11.847,10.617l10.91,9.778l8.718,7.813l13.271,11.894Z" style="fill:#fff;fill-opacity:0.243137;"/><path d="M196.307,46.664l-21.7,-7.493l4.214,-3.176l-4.214,-3.456l-2.618,-7.38l15.48,13.689l8.838,7.816Z" style="fill:#fff;fill-opacity:0.243137;"/><path d="M229.018,46.689l-17.696,-7.518l-1.362,-6.632l7.689,1.629l-5.024,-5.645l-4.205,-9.332l23.984,24.292l-0.013,0.155l-3.373,3.051Z" style="fill:#fff;fill-opacity:0.243137;fill-rule:nonzero;"/><path d="M0,74.941l336,0.934c-111.565,-20.535 -222.82,-42.224 -336,-43.045l0,42.111Z" style="fill:#041925;"/><path d="M336,75.941l-336,-1c111.99,-16.353 224.28,-35.134 336,-39.03l0,40.03Z" style="fill:#041925;"/><path d="M336,69.941c-111.038,-11.955 -223.037,-20.547 -336,-25.759l0,30.759l336,0l0,-5Z" style="fill:#02121b;"/><path d="M336,46.689c-113.561,12.863 -225.373,15.723 -336,16.311l0,12l336,0l0,-28.311Z"/><path d="M101.83,26.407l-1.63,3.838l-4.139,-6.012l5.769,2.174Z" style="fill:#fff;fill-opacity:0.239216;"/><path d="M70.03,21.223l-1.117,3.454l3.465,4.065l-1.752,5.344l13.978,-5.237l-14.574,-7.626Z" style="fill:#fff;fill-opacity:0.24;"/><path d="M117.655,36.374l-7.168,-12.177l10.042,7.309l-2.874,4.868Z" style="fill:#fff;fill-opacity:0.24;"/></g></svg>